
<svg version="1.0" xmlns="http://www.w3.org/2000/svg"
 width="512.000000pt" height="512.000000pt" viewBox="0 0 512.000000 512.000000"
 preserveAspectRatio="xMidYMid meet">

<g transform="translate(0.000000,512.000000) scale(0.100000,-0.100000)"
fill="#721817" stroke="none">
<path d="M2371 5110 c-798 -66 -1500 -476 -1935 -1130 -289 -433 -429 -897
-429 -1420 0 -690 259 -1317 748 -1805 487 -488 1115 -748 1805 -748 597 0
1139 191 1610 567 208 166 447 444 593 690 326 551 431 1221 291 1856 -211
956 -979 1723 -1934 1934 -233 51 -534 74 -749 56z m424 -935 c167 -44 280
-171 305 -340 13 -92 13 -1337 0 -1430 -21 -143 -104 -255 -238 -318 l-67 -32
-235 0 -235 0 -67 32 c-134 63 -217 175 -238 318 -13 93 -13 1338 0 1430 13
91 51 168 115 231 101 101 173 122 420 123 132 1 197 -3 240 -14z m-1286
-1403 c49 -37 59 -62 70 -182 14 -146 39 -240 101 -365 112 -229 321 -413 562
-493 132 -44 221 -55 368 -49 251 11 472 109 650 288 166 168 258 369 281 619
12 131 25 160 84 191 54 29 103 20 153 -26 l37 -34 -1 -123 c-1 -377 -222
-766 -561 -991 -138 -91 -322 -165 -473 -189 l-80 -12 0 -238 0 -238 -140 0
-140 0 0 240 0 240 -27 0 c-16 0 -74 11 -129 25 -386 93 -705 364 -864 732
-63 146 -94 287 -94 430 -1 116 0 122 24 148 51 56 125 67 179 27z"/>
</g>
</svg>
